# xmcd
#
# Track frame offsets:
#	182
#	2382
#	18665
#	36302
#	62355
#	83717
#	102232
#	123052
#	139695
#	157277
#	175357
#	193107
#	212362
#	232307
#	250100
#	267282
#	284655
#	304235
#
# Disc length: 4357 seconds
#
# Revision: 0
# Processed by: cddbd v1.5.2PL0 Copyright (c) Steve Scherf et al.
# Submitted via: EasyCDDAExtractor 16.0.9.1
#
DISCID=fc110312
DTITLE=Various Artist - Piranha Cool Dance Hits
DYEAR=1995
DGENRE=Euro-House
TTITLE0=Jingle - Warning, Intro
TTITLE1=Pirañhas - Bonanza
TTITLE2=DJ Bobo - Take Control
TTITLE3=Mr. French Junior - I Feel So Good (Euro Dance Mix)
TTITLE4=Sandman - Right Here Right Now
TTITLE5=Christine Lauterburg - Rot Uf Grau
TTITLE6=Demiro - My House (Airplay Cut)
TTITLE7=Richy - Set Me Free
TTITLE8=System XII - One More Time
TTITLE9=Feel Real - Abracadabra
TTITLE10=Der Zar - Heino, Wir Geh'n Nach Kairo
TTITLE11=Marcellina - Where Has All The Sunshine Gone
TTITLE12=Blackmail - Express
TTITLE13=Marco Polo - Living For Fantasy
TTITLE14=DJ Filo - Feel Your Soul
TTITLE15=DJ Bobo - Everybody
TTITLE16=Boom Club - CH-Mama
TTITLE17=Pirañhas - Bonanza (Combi-Mix)
EXTD=
EXTT0=
EXTT1=
EXTT2=
EXTT3=
EXTT4=
EXTT5=
EXTT6=
EXTT7=
EXTT8=
EXTT9=
EXTT10=
EXTT11=
EXTT12=
EXTT13=
EXTT14=
EXTT15=
EXTT16=
EXTT17=
PLAYORDER=
